<svg version="1.1" xmlns="http://www.w3.org/2000/svg" style="display: block;" viewBox="0 0 2048 2048" width="512" height="512">
<path transform="translate(0,0)" fill="rgb(0,0,0)" d="M 122.346 8.16063 L 1866.81 7.89588 C 1900.48 7.90593 1927.04 -1.49897 1947.63 28.561 L 1948.71 30.203 C 1957.65 43.5324 1956.29 57.2064 1956.15 72.5 L 1956.25 149.405 C 1956.48 181.878 1952.11 204.791 1913.6 212.211 L 1912.05 212.5 C 1906.48 213.569 1900.72 213.593 1895.07 213.864 C 1891.73 219.704 1893.58 278.724 1893.58 288.548 L 1893.81 1898.94 C 1892.24 1937.41 1852.82 1932.21 1825.83 1930.9 C 1822.36 1957.86 1830.16 2001.56 1825.84 2021.02 L 1824.77 2025.61 C 1823.45 2029.81 1818.99 2032.15 1815.43 2034.2 L 1801.57 2038.38 C 1791.99 2040.19 1653.53 2041.65 1649 2039.62 C 1642.82 2036.84 1635.88 2020.66 1632.5 2014.55 L 1596.97 1945.99 C 1594.93 1941.57 1594.78 1937.64 1591.26 1933.99 L 458.882 1934.15 L 456.628 1940.61 C 452.185 1953.74 406.726 2033.92 397.5 2038.86 C 393.104 2041.21 258.006 2043.42 244.322 2037.63 L 243 2037.04 C 208.527 2022.45 228.442 1963.73 224.818 1931.15 C 209.775 1930.18 194.121 1932.84 179.232 1930.93 L 178 1930.75 C 175.779 1930.45 173.472 1930.3 171.507 1929.11 L 169.922 1927.98 C 161.748 1922.31 157.162 1916.96 156.365 1906.35 C 154.07 1875.82 154.199 1845.09 154.166 1814.48 L 153.675 214.029 C 81.5307 214.69 91.3163 153.934 91.2835 99.3665 C 91.2671 71.9549 85.0288 17.2344 122.346 8.16063 z"/>
<path transform="translate(0,0)" fill="rgb(85,28,4)" d="M 275.113 1930.94 L 400.204 1932.86 C 396.545 1937.08 395.862 1941.42 393.39 1946.26 L 381.535 1967.19 L 371.857 1984.37 L 274.923 1982.64 L 275.113 1930.94 z"/>
<path transform="translate(0,0)" fill="rgb(85,28,4)" d="M 1649.95 1930.76 L 1771.06 1931.68 L 1771.42 1983.03 L 1675.08 1983.88 L 1649.95 1930.76 z"/>
<path transform="translate(0,0)" fill="rgb(250,170,23)" d="M 210.049 1809.14 L 1838.95 1809.61 L 1840.44 1881 L 209.973 1878.68 L 210.049 1809.14 z"/>
<path transform="translate(0,0)" fill="rgb(217,124,3)" d="M 146.234 63.5025 L 1902.66 63.1274 C 1904.78 67.6899 1903.24 80.0773 1903.24 85.8088 L 1903.16 157.934 L 146.228 158.278 L 146.234 63.5025 z"/>
<path transform="translate(0,0)" fill="rgb(250,170,23)" d="M 208.097 213.056 C 211.269 212.917 218.7 214.518 223.51 214.599 L 1839.16 214.716 C 1842.77 223.223 1840.73 305.573 1840.74 319.687 L 1840.87 1754.23 L 209.089 1753.18 C 207.731 1744.19 208.801 1733.57 208.795 1724.44 L 208.534 238.5 C 208.408 231.643 205.995 219.247 208.097 213.056 z"/>
<path transform="translate(0,0)" fill="rgb(0,0,0)" d="M 325.924 275.302 L 822.779 276.872 C 843.546 276.871 966.42 274.573 974.422 278.703 C 990.486 286.997 989.516 301.629 989.574 317.017 L 989.723 1613.67 C 989.743 1640.43 1000.53 1684.36 964.905 1691.79 L 327.274 1690.79 C 293.76 1689.05 297.985 1658.81 297.992 1633.1 L 298.074 306.65 C 298.519 288.156 307.694 278.079 325.924 275.302 z"/>
<path transform="translate(0,0)" fill="rgb(250,170,23)" d="M 917.333 332.259 C 921.987 331.415 930.568 330.208 934.713 331.753 L 934.959 1635.21 L 366.75 1635.01 L 353.851 1634.32 C 352.218 1622.85 353.243 1609.86 353.222 1598.22 L 352.87 332.548 L 917.333 332.259 z"/>
<path transform="translate(0,0)" fill="rgb(0,0,0)" d="M 843.602 849.286 C 856.462 850.265 866.07 857.358 870.927 869.608 L 872.406 873.612 C 874.645 881.581 872.974 893.409 872.941 901.887 L 873.3 1160.4 C 872.89 1174.88 860.139 1184.9 846.929 1188.04 C 822.218 1188.15 817.599 1169.21 817.579 1147.54 L 817.581 917.695 C 817.597 891.337 808.736 855.739 843.602 849.286 z"/>
<path transform="translate(0,0)" fill="rgb(0,0,0)" d="M 1093.57 275.404 L 1707.96 276.593 C 1723.44 276.377 1738.71 276.885 1746.86 292.522 L 1747.46 293.698 C 1749.45 297.309 1749.63 300.95 1749.78 304.992 L 1750 1643.25 C 1749.98 1675.52 1751.63 1690.59 1714.57 1691.08 L 1098.36 1691.91 C 1074.46 1692.88 1058.64 1686 1057.92 1658.28 L 1057.95 336.766 C 1057.98 324.875 1056.37 309.648 1059.52 298.283 L 1059.91 297 C 1064.69 280.18 1077.26 276.609 1093.57 275.404 z"/>
<path transform="translate(0,0)" fill="rgb(250,170,23)" d="M 1219.88 332.314 L 1695.04 332.226 L 1695.01 1635.32 L 1585.38 1635.04 L 1113.59 1635.16 L 1112.82 332.823 L 1219.88 332.314 z"/>
<path transform="translate(0,0)" fill="rgb(0,0,0)" d="M 1201.62 849.256 C 1234.23 847.179 1230.27 873.33 1230.24 893.21 L 1230.16 1099.72 C 1230.17 1128.76 1242.41 1180.04 1207.68 1187.16 L 1200.04 1186.85 C 1166.16 1182.7 1174.63 1130.45 1174.63 1107.36 L 1174.69 922.525 C 1174.69 908.552 1173.51 893.32 1175.24 879.475 L 1175.45 878 C 1177.4 863.074 1187.01 852.78 1201.62 849.256 z"/>
</svg>