<svg version="1.1" xmlns="http://www.w3.org/2000/svg" style="display: block;" viewBox="0 0 2048 2048" width="512" height="512">
<path transform="translate(0,0)" fill="rgb(0,0,0)" d="M 1167.75 1931.65 L 1166.75 1932.48 C 1112.25 1937.09 1056.22 1934.82 1001.48 1934.81 L 870.568 1934.3 C 861.375 1933.97 852.527 1931.56 843.433 1931.24 L 792.652 1930.43 C 774.925 1929.67 756.82 1927.6 739.24 1925.31 L 734.083 1937 C 719.321 1964.27 683.922 1990.26 655.188 1998.73 C 583.016 2020 510.128 1974.73 489.833 1903.87 C 456.183 1929.81 428.114 1902.94 440.95 1876.35 L 432.507 1872.2 C 403.595 1861.25 390.445 1832.04 389.464 1802.92 L 389.451 893.655 C 389.651 886.463 389.752 879.019 392.533 872.273 L 393.288 870.5 C 403.992 844.121 419.898 869.985 398.376 837.03 C 383.056 813.571 386.814 759.266 403.939 739.341 L 404.806 738.35 C 392.209 723.792 389.692 708.134 389.407 689.481 L 389.19 226.817 C 389.197 207.272 387.537 185.849 390.431 166.559 C 400.606 98.7185 467.81 91.3697 522 80.6997 C 607.547 63.8555 693.456 53.2334 780.404 47.1447 L 905.509 41.4831 L 1073 41.99 C 1081.66 42.2788 1089.98 43.941 1098.5 44.5175 L 1194 49.0442 L 1434.87 77.7733 C 1489.78 86.1549 1545.76 94.179 1599.65 107.769 C 1665.2 124.302 1684.49 150.572 1684.62 215.635 L 1684.72 686.658 C 1684.55 741.132 1685.57 710.605 1664.83 738.291 C 1669.85 743.19 1676.14 748.402 1679.7 754.457 L 1680.37 755.663 C 1688.31 769.221 1687.09 830.569 1680.89 845.39 L 1680.28 846.824 C 1683.45 853.217 1684.01 859.582 1684.37 866.589 L 1685.56 1748.53 C 1685.75 1753.48 1686.42 1759.02 1685.51 1763.88 L 1685.27 1765 C 1683.97 1771.52 1673.8 1780.91 1670.08 1788.42 C 1681.99 1808.43 1707.12 1832.39 1678.28 1857.95 C 1659.7 1874.42 1637.7 1859 1618.92 1870.34 C 1598.3 1882.8 1638.93 1914.63 1568.07 1903.89 C 1543.47 1986.07 1446.67 2028.15 1371.19 1987.1 C 1347.47 1974.2 1324.36 1952.34 1316.46 1925.9 L 1167.75 1931.65 z M 934.951 103.904 L 847.958 104.13 C 739.127 108.684 630.371 123.609 523.631 144.86 C 507.693 148.034 465.034 153.82 454.809 165.208 C 450.364 170.159 452.186 323.79 452.194 343.138 L 452.332 654.614 C 452.436 702.306 445.714 699.734 495.964 699.72 L 1139.5 699.667 L 1621.81 699.153 L 1621.63 235.236 C 1621.56 173.85 1629.12 176.301 1563 162.938 L 1519.23 154.538 C 1382.52 129.356 1244.83 112.796 1106 106.069 L 934.951 103.904 z M 494.952 761.055 L 472.276 761.259 C 468.807 761.292 464.761 760.812 461.501 761.9 C 463.027 805.301 464.597 802.888 501.231 802.841 L 1584.69 802.886 L 1593.19 801.444 C 1599.93 793.103 1607.49 785.3 1616.31 779.13 C 1613.5 774.995 1606.66 762.484 1601.79 761.372 L 494.952 761.055 z M 485.01 857.5 L 484.432 858.916 C 479.117 871.75 467.175 877.724 454.884 882.754 L 452.661 1741.76 C 468.248 1745.21 485.476 1745.39 501.418 1747.07 L 703.302 1767.25 L 869.515 1775.49 C 877.808 1775.81 885.869 1777.57 894.224 1777.8 L 1172.5 1777.91 C 1181.73 1777.61 1190.99 1775.98 1200.26 1775.57 L 1371 1765.32 L 1560.43 1745.68 L 1621.72 1737.75 L 1621.06 868.88 C 1609.49 863.335 1595.73 864.779 1583.3 864.751 L 508.193 864.818 C 498.238 864.834 491.585 866.605 485.204 857.638 L 485.01 857.5 z M 454.368 1803.5 C 451.026 1838.52 543.977 1841.06 568.449 1844.3 L 811.5 1866.74 C 820.579 1867.29 829.454 1868.6 838.592 1868.85 L 886.5 1869.46 C 894.36 1869.85 902.159 1871.44 910.127 1871.75 L 1141.5 1872.05 C 1150.94 1871.7 1160.45 1869.78 1170.04 1869.44 L 1278.54 1865 L 1555.33 1834.37 C 1570.82 1832.69 1587.32 1832.67 1600.92 1824.18 C 1607.44 1818.78 1611.49 1813.89 1615.43 1806.38 C 1580.01 1805.56 1543.31 1811.84 1508.09 1815.91 L 1191 1839.64 L 893.5 1839.84 C 886.923 1839.68 880.439 1838.43 873.865 1838.18 L 821.938 1837.44 L 596.826 1820.85 L 489.811 1808.65 C 481.943 1807.68 460.986 1802.07 454.368 1803.5 z M 557.634 1906.25 C 577.965 1941.33 624.41 1952.36 658.823 1931.62 L 659.712 1931.06 C 663.082 1928.34 666.6 1925.74 669.532 1922.55 L 557.634 1906.25 z M 1478.58 1909.41 L 1386.11 1919.75 C 1391.95 1928.42 1398.64 1933.9 1408.06 1938.39 C 1420.12 1943.07 1431.15 1944.34 1444 1942.26 L 1445.88 1941.97 C 1465.5 1938.74 1482.11 1927.18 1493.71 1911.18 L 1495.31 1908.75 C 1490.56 1908.92 1482.96 1908.14 1478.58 1909.41 z"/>
<path transform="translate(0,0)" fill="rgb(0,0,0)" d="M 616.88 669.859 C 585.019 670.709 557.243 655.492 546.496 624.067 L 544.729 619.265 C 537.94 604.083 541.75 570.731 541.733 553.621 L 541.54 377.265 C 541.333 325.995 545.713 279.847 608.242 273.379 C 641.874 270.876 677.433 299.914 681.458 333.469 C 683.091 347.073 681.927 362.061 681.937 375.791 L 681.937 563.494 C 681.912 615.015 682.302 662.732 616.88 669.859 z M 607.405 334.5 C 599.469 342.042 604.2 366.182 604.258 376.548 L 604.789 592.241 C 605.293 601.487 606.204 607.628 616.5 608.449 C 620.52 604.492 619.831 597.745 619.872 592.192 L 619.949 437.307 C 619.957 421.244 628.342 333.206 609.127 334.165 L 607.405 334.5 z"/>
<path transform="translate(0,0)" fill="rgb(0,0,0)" d="M 618.901 1368.08 C 610.919 1368.5 602.84 1368.29 595.082 1366.23 C 537.839 1350.99 541.74 1298.13 541.692 1253.09 L 541.45 985.034 C 541.375 937.77 556.561 904.842 608.361 900.391 C 661.489 900.002 681.811 937.734 681.88 984.142 L 681.522 1304.5 C 681.174 1311.35 680.488 1318.55 676.989 1324.56 L 671.574 1333.93 C 658.781 1352.78 641.023 1363.81 618.901 1368.08 z M 606.954 960.5 C 604.181 963.047 604.267 964.192 604.105 968 L 604.412 1234.43 C 604.423 1246.45 597.73 1307.11 615.673 1304.8 L 616.664 1304.5 C 619.395 1300.94 619.439 1297.26 619.559 1293.38 L 619.692 980.03 C 619.286 969.482 619.702 960.288 606.954 960.5 z"/>
</svg>