<svg version="1.1" xmlns="http://www.w3.org/2000/svg" style="display: block;" viewBox="0 0 2048 2048" width="1024" height="1024">
<defs>
	<linearGradient id="Gradient1" gradientUnits="userSpaceOnUse" x1="1209.5" y1="1865.5" x2="352.043" y2="2177.75">
		<stop class="stop0" offset="0" stop-opacity="1" stop-color="rgb(101,192,207)"/>
		<stop class="stop1" offset="1" stop-opacity="1" stop-color="rgb(53,210,212)"/>
	</linearGradient>
</defs>
<path transform="translate(0,0)" fill="rgb(2,2,2)" d="M 202.21 2048 L -0 2048 L -0 -0 L 223.339 0 L 644.763 0 L 761.05 0 L 1156.65 0 L 2048 0 L 2048 2048 L 1205.04 2048 L 1097.09 2048 L 310.218 2048 L 202.21 2048 z M 1156.65 0 C 1164.5 1.78561 1172.6 2.40834 1180.36 4.53747 C 1212.85 13.4508 1241.95 35.6361 1259.97 63.875 C 1270.71 80.7086 1276.86 99.0757 1279.3 118.831 C 1280.5 128.519 1279.98 138.676 1279.99 148.432 C 1280.01 164.924 1280 181.417 1280.01 197.91 C 1280.06 253.328 1280.08 308.745 1280.07 364.163 C 1280.02 545.573 1279.99 726.982 1280.01 908.392 C 1280.04 1122.43 1279.66 1336.47 1280 1550.5 C 1280.11 1619.94 1279.97 1689.37 1280.01 1758.81 C 1280.03 1780.75 1280.07 1802.68 1280.05 1824.62 C 1280.05 1835.72 1280.84 1847.59 1279.75 1858.6 C 1278.12 1875.18 1270.71 1893.01 1262.29 1907.24 C 1258.36 1913.89 1252.12 1921.21 1249.25 1928.26 C 1248.44 1930.26 1248.84 1932.66 1248.44 1934.78 C 1247.48 1939.8 1248.12 1945.98 1248.08 1951.12 C 1247.86 1980.78 1253.05 2017.35 1225.76 2037.62 C 1219.66 2042.14 1211.93 2044.89 1205.04 2048 L 2048 2048 L 2048 0 L 1156.65 0 z M 202.21 2048 L 310.218 2048 C 317.304 2044.22 324.925 2041.41 331.173 2036.24 C 346.873 2023.24 350.663 2003.29 352.273 1984.05 C 419.035 1983.99 485.797 1984.04 552.559 1984.03 C 572.807 1984.03 593.056 1984.02 613.304 1984 C 622.611 1983.99 632.928 1984.86 642.137 1983.83 C 646.624 1983.33 651.053 1981.64 654.859 1979.21 C 663.69 1973.57 669.584 1963.86 671.736 1953.83 L 672.5 1951.95 C 693.473 1951.25 715.518 1953.27 736.108 1948.88 C 737.04 1945.57 738.035 1942.34 739.541 1939.25 C 743.757 1930.57 751.036 1923.26 760.578 1920.79 C 769.321 1918.53 779.465 1919.43 788.448 1919.48 C 803.315 1919.58 818.18 1919.73 833.048 1919.71 C 886.141 1919.64 939.234 1919.36 992.328 1919.32 C 1019.75 1919.3 1047.16 1919.37 1074.58 1919.33 C 1087.77 1919.32 1100.97 1919.27 1114.16 1919.11 C 1128.77 1918.93 1144.42 1918.63 1158.35 1913.79 C 1182.84 1905.28 1198.8 1887.78 1209.83 1864.77 C 1202.11 1866.16 1195.39 1872.9 1188.48 1876.59 C 1174.65 1883.97 1156.99 1887.78 1141.41 1888.66 C 1122.3 1889.75 1102.79 1889.01 1083.64 1889.09 C 1040.47 1889.27 997.306 1888.99 954.137 1888.81 C 921.411 1888.67 888.685 1888.81 855.96 1888.87 C 812.913 1888.95 770.183 1889.15 727.867 1879.84 C 694.886 1872.59 660.057 1858.18 634.797 1835.16 C 613.66 1815.89 595.449 1793.33 578.638 1770.27 C 547.787 1727.95 523.094 1683.52 499.152 1637.09 C 485.111 1609.86 471.062 1583.02 459.213 1554.73 C 451.962 1537.42 445.883 1519.6 439.284 1502.04 C 428.708 1473.89 417.629 1445.63 408.314 1417.04 C 399.787 1390.88 392.823 1364.3 385.507 1337.78 C 378.895 1313.82 373.118 1289.94 367.773 1265.67 C 364.139 1249.17 360.177 1233.01 359.283 1216.06 C 348.325 1213.95 338.42 1212.11 328.332 1207.03 C 311.084 1198.36 296.128 1183.62 290.357 1164.82 C 286.752 1153.07 287.017 1140.04 287.067 1127.86 C 287.128 1113.12 287.305 1098.39 287.256 1083.66 C 287.189 1063.46 285.282 1041.57 288.038 1021.56 C 289.159 1013.42 291.852 1005.5 295.802 998.312 C 306.084 979.587 326.802 967.218 346.767 961.485 C 337.136 951.829 331.07 935.581 324.105 923.784 C 318.832 914.853 312.591 906.546 308.007 897.229 L 329.297 896.168 L 224.047 896.909 L 133.1 896.923 L 131.201 910.249 C 130.576 906.043 130.667 901.727 130.585 897.481 L 124 896.018 C 120.998 895.382 118.685 894.748 115.968 893.211 C 106.941 888.105 99.5021 879.498 97.2247 869.229 C 95.2444 860.3 96.0416 848.899 96.0355 839.724 C 96.0245 823.156 96.0189 806.588 96.0139 790.019 C 95.9945 726.254 95.9882 662.488 95.9851 598.722 C 95.9799 492.779 95.9885 386.836 96.0049 280.893 C 96.0101 247.648 96.0161 214.403 96.0222 181.158 C 96.0257 161.984 95.0986 142.291 96.8163 123.209 C 98.6933 102.356 105.43 82.7025 117.002 65.2028 C 135.109 37.823 164.615 14.6717 196.274 5.36599 C 205.186 2.74632 214.266 1.80347 223.339 0 L -0 -0 L -0 2048 L 202.21 2048 z M 671.736 1953.83 C 669.584 1963.86 663.69 1973.57 654.859 1979.21 C 651.053 1981.64 646.624 1983.33 642.137 1983.83 C 632.928 1984.86 622.611 1983.99 613.304 1984 C 593.056 1984.02 572.807 1984.03 552.559 1984.03 C 485.797 1984.04 419.035 1983.99 352.273 1984.05 C 350.663 2003.29 346.873 2023.24 331.173 2036.24 C 324.925 2041.41 317.304 2044.22 310.218 2048 L 1097.09 2048 C 1090.29 2044.16 1083.58 2041.85 1077.4 2036.77 C 1069.8 2030.51 1064.55 2022.15 1061.34 2012.9 C 1058.56 2004.9 1056.7 1996.65 1055.99 1988.22 C 1055.95 1987.83 1055.69 1984.02 1055.67 1984 C 1055.63 1983.97 863.861 1984.04 823.479 1984.02 C 811.067 1984.01 798.655 1984 786.244 1983.99 C 779.704 1983.98 772.65 1984.5 766.18 1983.6 C 758.605 1982.55 752.556 1979.34 747.018 1974.17 C 739.749 1967.38 736.345 1958.69 736.108 1948.88 C 715.518 1953.27 693.473 1951.25 672.5 1951.95 L 671.736 1953.83 z M 644.763 0 C 655.065 4.49521 664.124 9.16736 668.515 20.3141 C 670.288 24.8147 671.119 29.8379 672.104 34.5658 C 693.484 35.0622 718.209 33.2166 738.48 40.3103 C 737.477 34.1073 737.3 27.6735 739.336 21.6562 C 743.169 10.3289 750.727 4.86949 761.05 0 L 644.763 0 z"/>
<path transform="translate(0,0)" fill="rgb(57,51,85)" d="M 1179.76 1955.45 L 1182.81 1955.27 C 1185.01 1963.3 1183.81 1974.95 1184.03 1983.44 L 1125.75 1983.48 C 1124.29 1983.46 1122.93 1983.16 1121.5 1982.9 C 1119.62 1975.87 1120.56 1966.31 1120.39 1958.94 L 1179.76 1955.45 z"/>
<path transform="translate(0,0)" fill="rgb(100,182,187)" d="M 1215.37 799.724 L 1215.68 830.978 L 1152.15 831.05 L 1152.23 800.918 C 1157.34 799.006 1166.35 800.099 1171.97 800.08 C 1186.44 800.031 1200.91 799.921 1215.37 799.724 z"/>
<path transform="translate(0,0)" fill="rgb(100,182,187)" d="M 476.894 831.144 L 160.068 830.327 C 160.178 660.793 159.613 491.244 160.304 321.713 C 160.475 279.759 160.174 237.823 160.074 195.872 C 160.022 173.918 158.179 149.664 161.35 127.93 C 163.46 113.475 170.577 99.9647 180.703 89.5612 C 200.556 69.1649 224.895 64.2829 252.327 63.9628 C 252.119 65.1561 252.024 67.7332 251.5 68.7112 C 250.765 70.0812 248.064 72.1558 246.917 73.3135 C 242.897 77.3693 238.331 81.4619 234.835 85.9906 C 228.506 94.1892 225.944 103.572 224.88 113.69 C 222.279 138.416 224.077 164.826 224.085 189.77 C 224.1 236.802 224.067 283.84 223.818 330.872 C 223.259 436.787 223.832 542.488 224.694 648.399 C 225.028 689.451 223.407 730.42 224.903 771.5 C 225.096 776.802 225.99 781.763 229.04 786.223 C 234.666 794.45 243.483 799.601 253.199 801.27 C 266.27 803.516 281.905 801.94 295.258 801.892 C 327.367 801.776 359.471 801.855 391.579 801.927 C 413.641 801.976 436.67 800.899 458.532 804.125 C 465.577 805.164 471.881 807.188 478.246 810.374 L 480.302 821.383 L 481.5 822.74 C 490.817 816.472 498.823 811.151 510.149 809.147 C 539.798 803.902 570.034 804.347 600 803.933 C 634.668 803.455 669.298 803.183 703.972 803.097 C 786.145 802.892 868.305 802.486 950.472 802.091 C 996.278 801.872 1042.17 802.538 1087.96 801.069 L 1089.11 831.027 L 476.894 831.144 z"/>
<path transform="translate(0,0)" fill="rgb(73,208,226)" d="M 252.327 63.9628 L 372.971 63.8217 C 369.76 74.0512 365.298 83.2328 363.232 93.8984 C 359.278 114.307 359.671 136.853 359.2 157.637 C 358.535 186.917 357.71 216.21 358.142 245.5 C 358.51 270.381 360.196 295.273 359.718 320.162 C 385.103 320.879 408.559 324.992 426.737 344.513 C 436.254 354.732 442.994 367.241 445.94 380.918 C 448.482 392.713 447.898 406.381 447.937 418.406 C 448 437.678 447.816 456.954 447.707 476.225 C 447.543 505.176 448.68 534.729 447.273 563.602 C 446.822 572.867 445.208 581.44 442.336 590.242 C 444.231 592.854 445.145 594.765 445.538 597.997 C 447.503 614.172 447.84 630.842 449.633 647.151 C 452.551 673.695 456.836 700.023 459.924 726.5 C 461.015 735.852 459.579 750.48 463.238 758.947 C 466.167 765.725 475.873 774.87 483.228 775.79 C 489.223 776.54 496.831 775.856 502.5 777.513 L 479.114 778.163 C 477.728 788.974 478.133 799.515 478.246 810.374 C 471.881 807.188 465.577 805.164 458.532 804.125 C 436.67 800.899 413.641 801.976 391.579 801.927 C 359.471 801.855 327.367 801.776 295.258 801.892 C 281.905 801.94 266.27 803.516 253.199 801.27 C 243.483 799.601 234.666 794.45 229.04 786.223 C 225.99 781.763 225.096 776.802 224.903 771.5 C 223.407 730.42 225.028 689.451 224.694 648.399 C 223.832 542.488 223.259 436.787 223.818 330.872 C 224.067 283.84 224.1 236.802 224.085 189.77 C 224.077 164.826 222.279 138.416 224.88 113.69 C 225.944 103.572 228.506 94.1892 234.835 85.9906 C 238.331 81.4619 242.897 77.3693 246.917 73.3135 C 248.064 72.1558 250.765 70.0812 251.5 68.7112 C 252.024 67.7332 252.119 65.1561 252.327 63.9628 z"/>
<path transform="translate(0,0)" fill="rgb(2,2,2)" d="M 359.718 320.162 C 385.103 320.879 408.559 324.992 426.737 344.513 C 436.254 354.732 442.994 367.241 445.94 380.918 C 448.482 392.713 447.898 406.381 447.937 418.406 C 448 437.678 447.816 456.954 447.707 476.225 C 447.543 505.176 448.68 534.729 447.273 563.602 C 446.822 572.867 445.208 581.44 442.336 590.242 C 439.555 596.232 436.348 601.997 432.325 607.245 C 418.626 625.117 397.699 636.769 375.374 639.397 C 352.666 642.07 330.808 636.42 312.991 621.967 C 299.737 611.214 289.527 595.75 287.84 578.503 C 286.443 564.219 286.991 549.662 287.024 535.32 C 287.073 514.085 287.05 492.85 287.053 471.615 C 287.055 453.186 286.996 434.756 286.993 416.327 C 286.992 403.894 286.2 390.817 288.48 378.545 C 290.676 366.728 296.302 356.239 303.91 347.04 C 318.293 329.65 337.811 322.14 359.718 320.162 z"/>
<path transform="translate(0,0)" fill="rgb(57,51,85)" d="M 360.181 387.172 C 363.132 387.03 366.305 386.669 369.232 387.119 C 373.47 387.77 378.233 390.955 380.732 394.38 C 382.131 396.3 382.72 398.136 382.893 400.5 C 383.857 413.746 383.12 427.589 383.11 440.885 C 383.091 466.562 383.078 492.204 382.493 517.876 C 382.196 530.935 383.789 546.413 380.971 559 C 379.436 565.855 375.859 568.922 370.161 572.624 L 368.812 572.82 C 367.139 573.073 365.189 573.496 363.5 573.326 C 359.771 572.952 355.87 569.122 353.774 566.1 C 352.798 564.693 350.945 561.974 350.592 560.281 C 350.049 557.68 350.835 553.487 350.93 550.665 C 351.205 542.448 351.507 534.221 351.609 526 C 352.016 493.363 351.128 460.424 350.294 427.784 C 350.11 420.604 349.72 413.441 349.291 406.273 C 349.127 403.537 348.324 398.974 349.135 396.353 C 350.484 392 356.496 389.148 360.181 387.172 z"/>
<path transform="translate(0,0)" fill="rgb(125,227,234)" d="M 672.104 34.5658 C 693.484 35.0622 718.209 33.2166 738.48 40.3103 C 743.41 50.7725 749.715 57.8428 761.111 61.552 C 770.674 64.6644 783.019 63.694 793.049 63.7381 C 809.742 63.8115 826.436 63.8398 843.129 63.8613 C 897.188 63.9311 951.247 63.949 1005.31 63.832 C 1036.65 63.7641 1068.73 62.5054 1100 64.4209 C 1132.39 63.9311 1168.28 60.3831 1193.5 85.0278 C 1210.95 102.079 1215.46 121.289 1215.51 145 L 1215.37 799.724 C 1200.91 799.921 1186.44 800.031 1171.97 800.08 C 1166.35 800.099 1157.34 799.006 1152.23 800.918 L 1152.15 831.05 L 1089.11 831.027 L 1087.96 801.069 C 1042.17 802.538 996.278 801.872 950.472 802.091 C 868.305 802.486 786.145 802.892 703.972 803.097 C 669.298 803.183 634.668 803.455 600 803.933 C 570.034 804.347 539.798 803.902 510.149 809.147 C 498.823 811.151 490.817 816.472 481.5 822.74 L 480.302 821.383 L 478.246 810.374 C 478.133 799.515 477.728 788.974 479.114 778.163 L 502.5 777.513 C 496.831 775.856 489.223 776.54 483.228 775.79 C 475.873 774.87 466.167 765.725 463.238 758.947 C 459.579 750.48 461.015 735.852 459.924 726.5 C 456.836 700.023 452.551 673.695 449.633 647.151 C 447.84 630.842 447.503 614.172 445.538 597.997 C 445.145 594.765 444.231 592.854 442.336 590.242 C 445.208 581.44 446.822 572.867 447.273 563.602 C 448.68 534.729 447.543 505.176 447.707 476.225 C 447.816 456.954 448 437.678 447.937 418.406 C 447.898 406.381 448.482 392.713 445.94 380.918 C 442.994 367.241 436.254 354.732 426.737 344.513 C 408.559 324.992 385.103 320.879 359.718 320.162 C 360.196 295.273 358.51 270.381 358.142 245.5 C 357.71 216.21 358.535 186.917 359.2 157.637 C 359.671 136.853 359.278 114.307 363.232 93.8984 C 365.298 83.2328 369.76 74.0512 372.971 63.8217 C 430.657 63.9174 488.342 63.9956 546.028 64.0024 C 566.325 64.0048 586.623 63.9983 606.918 63.7137 C 617.559 63.5645 628.59 63.9394 639.166 62.837 C 645.328 62.1946 651.716 60.5436 657.005 57.2146 C 665.501 51.8669 669.887 44.1161 672.104 34.5658 z"/>
<path transform="translate(0,0)" fill="rgb(201,247,252)" d="M 1087.96 801.069 C 1089.46 786.944 1088.09 771.368 1088.08 757.066 C 1088.05 725.354 1088.02 693.643 1087.99 661.931 C 1087.94 598.852 1088.83 535.79 1088.84 472.714 C 1088.86 409.056 1089.07 345.365 1088.83 281.713 C 1088.61 222.446 1087.63 163.268 1088.43 103.989 C 1088.54 96.2539 1086.99 70.9872 1090 65.2273 L 1100 65.0343 L 1103.39 65.7456 L 1103.82 66.7602 C 1105.49 69.4781 1109.9 71.2068 1112.6 72.8277 C 1129.19 82.7877 1140.96 93.9769 1146.67 112.902 C 1151.02 127.296 1150.98 143.026 1151.16 157.911 C 1151.35 173.378 1151.48 188.846 1151.59 204.313 C 1151.85 243.902 1151.81 283.492 1151.88 323.081 C 1152.16 482.168 1151.21 641.261 1151.89 800.345 C 1138.74 802.741 1122.98 801.134 1109.5 801.34 C 1103.57 801.43 1093.35 803.01 1087.96 801.069 z"/>
<path transform="translate(0,0)" fill="url(#Gradient1)" d="M 202.21 2048 L -0 2048 L -0 -0 L 223.339 0 C 214.266 1.80347 205.186 2.74632 196.274 5.36599 C 164.615 14.6717 135.109 37.823 117.002 65.2028 C 105.43 82.7025 98.6933 102.356 96.8163 123.209 C 95.0986 142.291 96.0257 161.984 96.0222 181.158 C 96.0161 214.403 96.0101 247.648 96.0049 280.893 C 95.9885 386.836 95.9799 492.779 95.9851 598.722 C 95.9882 662.488 95.9945 726.254 96.0139 790.019 C 96.0189 806.588 96.0245 823.156 96.0355 839.724 C 96.0416 848.899 95.2444 860.3 97.2247 869.229 C 99.5021 879.498 106.941 888.105 115.968 893.211 C 118.685 894.748 120.998 895.382 124 896.018 L 130.585 897.481 C 130.667 901.727 130.576 906.043 131.201 910.249 L 133.1 896.923 L 224.047 896.909 L 329.297 896.168 L 308.007 897.229 C 312.591 906.546 318.832 914.853 324.105 923.784 C 331.07 935.581 337.136 951.829 346.767 961.485 C 326.802 967.218 306.084 979.587 295.802 998.312 C 291.852 1005.5 289.159 1013.42 288.038 1021.56 C 285.282 1041.57 287.189 1063.46 287.256 1083.66 C 287.305 1098.39 287.128 1113.12 287.067 1127.86 C 287.017 1140.04 286.752 1153.07 290.357 1164.82 C 296.128 1183.62 311.084 1198.36 328.332 1207.03 C 338.42 1212.11 348.325 1213.95 359.283 1216.06 C 360.177 1233.01 364.139 1249.17 367.773 1265.67 C 373.118 1289.94 378.895 1313.82 385.507 1337.78 C 392.823 1364.3 399.787 1390.88 408.314 1417.04 C 417.629 1445.63 428.708 1473.89 439.284 1502.04 C 445.883 1519.6 451.962 1537.42 459.213 1554.73 C 471.062 1583.02 485.111 1609.86 499.152 1637.09 C 523.094 1683.52 547.787 1727.95 578.638 1770.27 C 595.449 1793.33 613.66 1815.89 634.797 1835.16 C 660.057 1858.18 694.886 1872.59 727.867 1879.84 C 770.183 1889.15 812.913 1888.95 855.96 1888.87 C 888.685 1888.81 921.411 1888.67 954.137 1888.81 C 997.306 1888.99 1040.47 1889.27 1083.64 1889.09 C 1102.79 1889.01 1122.3 1889.75 1141.41 1888.66 C 1156.99 1887.78 1174.65 1883.97 1188.48 1876.59 C 1195.39 1872.9 1202.11 1866.16 1209.83 1864.77 C 1198.8 1887.78 1182.84 1905.28 1158.35 1913.79 C 1144.42 1918.63 1128.77 1918.93 1114.16 1919.11 C 1100.97 1919.27 1087.77 1919.32 1074.58 1919.33 C 1047.16 1919.37 1019.75 1919.3 992.328 1919.32 C 939.234 1919.36 886.141 1919.64 833.048 1919.71 C 818.18 1919.73 803.315 1919.58 788.448 1919.48 C 779.465 1919.43 769.321 1918.53 760.578 1920.79 C 751.036 1923.26 743.757 1930.57 739.541 1939.25 C 738.035 1942.34 737.04 1945.57 736.108 1948.88 C 715.518 1953.27 693.473 1951.25 672.5 1951.95 L 671.736 1953.83 C 669.584 1963.86 663.69 1973.57 654.859 1979.21 C 651.053 1981.64 646.624 1983.33 642.137 1983.83 C 632.928 1984.86 622.611 1983.99 613.304 1984 C 593.056 1984.02 572.807 1984.03 552.559 1984.03 C 485.797 1984.04 419.035 1983.99 352.273 1984.05 C 350.663 2003.29 346.873 2023.24 331.173 2036.24 C 324.925 2041.41 317.304 2044.22 310.218 2048 L 202.21 2048 z M 202.21 2048 L 189.734 2042.28 C 157.908 2025.37 160.042 1991.96 159.979 1960.87 C 159.978 1960.19 160.23 1955.26 159.973 1954.88 C 159.427 1954.08 156.414 1952.7 155.346 1952.01 C 151.502 1949.54 147.907 1946.66 144.385 1943.75 C 124.666 1927.47 108.593 1901.86 101.247 1877.42 C 93.1108 1850.36 95.9837 1819.47 95.9775 1791.41 C 95.9714 1763.65 95.9837 1735.88 95.9981 1708.12 C 96.0413 1625.16 96.0594 1542.21 96.0782 1459.25 C 96.1014 1357.14 96.1042 1255.04 96.0485 1152.94 C 96.0297 1118.37 96.0188 1083.8 96.0152 1049.24 C 96.0133 1031.25 95.4437 1013.06 96.1355 995.091 C 96.3843 988.627 98.0765 981.697 101.347 976.087 C 106.289 967.611 114.601 963.52 123.675 960.842 C 126.836 960.03 130.243 959.97 133.5 959.711 C 131.653 953.958 131.818 947.509 131.591 941.5 C 131.215 931.551 130.746 921.499 131.14 911.548 L 131.201 910.249 C 130.576 906.043 130.667 901.727 130.585 897.481 L 124 896.018 C 120.998 895.382 118.685 894.748 115.968 893.211 C 106.941 888.105 99.5021 879.498 97.2247 869.229 C 95.2444 860.3 96.0416 848.899 96.0355 839.724 C 96.0245 823.156 96.0189 806.588 96.0139 790.019 C 95.9945 726.254 95.9882 662.488 95.9851 598.722 C 95.9799 492.779 95.9885 386.836 96.0049 280.893 C 96.0101 247.648 96.0161 214.403 96.0222 181.158 C 96.0257 161.984 95.0986 142.291 96.8163 123.209 C 98.6933 102.356 105.43 82.7025 117.002 65.2028 C 135.109 37.823 164.615 14.6717 196.274 5.36599 C 205.186 2.74632 214.266 1.80347 223.339 0 L -0 -0 L -0 2048 L 202.21 2048 z"/>
<path transform="translate(0,0)" fill="rgb(58,166,181)" d="M 131.201 910.249 L 133.1 896.923 L 224.047 896.909 C 222.079 932.572 223.567 967.945 224.656 1003.76 C 225.606 1034.99 225.947 1066.25 226 1097.49 C 226.296 1274.27 225.982 1451.07 225.799 1627.85 C 225.738 1685.76 224.526 1743.58 225.887 1801.49 C 226.133 1811.99 224.236 1826.33 227.668 1836.24 L 228.074 1837.46 C 230.515 1844.09 237.996 1849.51 244.266 1852.12 C 249.487 1854.29 255.005 1855.45 260.648 1855.72 C 294.16 1857.32 327.91 1854.13 361.448 1854.13 C 389.389 1854.14 417.297 1855.65 445.219 1856.35 C 472.159 1857.03 499.119 1856.91 526.066 1857.04 C 541.72 1857.12 557.351 1857.51 573 1857.77 C 580.102 1857.89 590.069 1856.79 596.804 1858.82 C 605.141 1861.32 617.908 1872.25 620.803 1880.5 C 622.479 1885.28 619.619 1890.58 617.29 1894.6 C 611.946 1903.81 604.586 1911.19 596.689 1918.23 C 587.764 1919.83 576.769 1918.49 567.557 1918.41 C 546.593 1918.22 525.63 1917.97 504.665 1917.92 C 443.096 1917.8 381.508 1918.26 319.943 1917.62 C 291.521 1917.33 261.578 1919.1 233.5 1915.04 C 215.971 1912.51 196.996 1904.5 184.366 1891.9 C 173.667 1881.22 163.275 1865.13 161.003 1849.97 C 159.531 1840.15 160.048 1829.76 160.044 1819.85 C 160.036 1804 160.035 1788.15 160.034 1772.3 C 160.032 1717.56 160.047 1662.81 160.064 1608.07 C 160.109 1469.75 160.175 1331.42 160.121 1193.1 C 160.095 1126.78 160.847 1060.36 160.03 994.05 C 159.911 984.348 155.659 976.839 148.766 970.254 C 140.832 962.674 134.357 960.747 123.675 960.842 C 126.836 960.03 130.243 959.97 133.5 959.711 C 131.653 953.958 131.818 947.509 131.591 941.5 C 131.215 931.551 130.746 921.499 131.14 911.548 L 131.201 910.249 z"/>
<path transform="translate(0,0)" fill="rgb(2,2,2)" d="M 123.675 960.842 C 134.357 960.747 140.832 962.674 148.766 970.254 C 155.659 976.839 159.911 984.348 160.03 994.05 C 160.847 1060.36 160.095 1126.78 160.121 1193.1 C 160.175 1331.42 160.109 1469.75 160.064 1608.07 C 160.047 1662.81 160.032 1717.56 160.034 1772.3 C 160.035 1788.15 160.036 1804 160.044 1819.85 C 160.048 1829.76 159.531 1840.15 161.003 1849.97 C 163.275 1865.13 173.667 1881.22 184.366 1891.9 C 196.996 1904.5 215.971 1912.51 233.5 1915.04 C 261.578 1919.1 291.521 1917.33 319.943 1917.62 C 381.508 1918.26 443.096 1917.8 504.665 1917.92 C 525.63 1917.97 546.593 1918.22 567.557 1918.41 C 576.769 1918.49 587.764 1919.83 596.689 1918.23 C 607.452 1918.12 618.215 1918.03 628.978 1917.99 C 635.169 1917.97 642.362 1917.18 648.225 1919.43 C 651.785 1920.8 655.151 1924.01 657.842 1926.67 C 665.533 1934.26 669.572 1943.37 671.736 1953.83 C 669.584 1963.86 663.69 1973.57 654.859 1979.21 C 651.053 1981.64 646.624 1983.33 642.137 1983.83 C 632.928 1984.86 622.611 1983.99 613.304 1984 C 593.056 1984.02 572.807 1984.03 552.559 1984.03 C 485.797 1984.04 419.035 1983.99 352.273 1984.05 C 350.663 2003.29 346.873 2023.24 331.173 2036.24 C 324.925 2041.41 317.304 2044.22 310.218 2048 L 202.21 2048 L 189.734 2042.28 C 157.908 2025.37 160.042 1991.96 159.979 1960.87 C 159.978 1960.19 160.23 1955.26 159.973 1954.88 C 159.427 1954.08 156.414 1952.7 155.346 1952.01 C 151.502 1949.54 147.907 1946.66 144.385 1943.75 C 124.666 1927.47 108.593 1901.86 101.247 1877.42 C 93.1108 1850.36 95.9837 1819.47 95.9775 1791.41 C 95.9714 1763.65 95.9837 1735.88 95.9981 1708.12 C 96.0413 1625.16 96.0594 1542.21 96.0782 1459.25 C 96.1014 1357.14 96.1042 1255.04 96.0485 1152.94 C 96.0297 1118.37 96.0188 1083.8 96.0152 1049.24 C 96.0133 1031.25 95.4437 1013.06 96.1355 995.091 C 96.3843 988.627 98.0765 981.697 101.347 976.087 C 106.289 967.611 114.601 963.52 123.675 960.842 z"/>
<path transform="translate(0,0)" fill="rgb(57,51,85)" d="M 224.84 1960.5 C 230.222 1959.14 237.144 1959.96 242.702 1959.95 C 257.445 1959.94 272.187 1959.95 286.93 1959.96 C 286.879 1967.69 287.343 1975.87 286.21 1983.5 C 279.983 1984.64 272.388 1983.93 266.026 1983.89 C 252.137 1983.81 238.248 1983.59 224.36 1983.41 C 224.298 1975.81 223.946 1968.06 224.84 1960.5 z"/>
<path transform="translate(0,0)" fill="rgb(125,227,234)" d="M 355.981 896.071 L 1088.04 896.165 C 1103.21 896.079 1118.38 895.959 1133.54 896.138 C 1139.04 896.203 1146.69 895.297 1151.84 897.135 L 1153.66 897.456 L 1154.7 896.94 C 1158.92 895.396 1166.29 896.264 1170.87 896.222 C 1185.59 896.09 1200.31 895.976 1215.03 896.041 C 1215.18 1112.67 1215.74 1329.29 1215.47 1545.92 C 1215.39 1607.24 1215.33 1668.57 1215.58 1729.89 C 1215.73 1768.43 1217.24 1807.97 1214.9 1846.39 C 1214.51 1852.71 1212.61 1859.09 1209.83 1864.77 C 1202.11 1866.16 1195.39 1872.9 1188.48 1876.59 C 1174.65 1883.97 1156.99 1887.78 1141.41 1888.66 C 1122.3 1889.75 1102.79 1889.01 1083.64 1889.09 C 1040.47 1889.27 997.306 1888.99 954.137 1888.81 C 921.411 1888.67 888.685 1888.81 855.96 1888.87 C 812.913 1888.95 770.183 1889.15 727.867 1879.84 C 694.886 1872.59 660.057 1858.18 634.797 1835.16 C 613.66 1815.89 595.449 1793.33 578.638 1770.27 C 547.787 1727.95 523.094 1683.52 499.152 1637.09 C 485.111 1609.86 471.062 1583.02 459.213 1554.73 C 451.962 1537.42 445.883 1519.6 439.284 1502.04 C 428.708 1473.89 417.629 1445.63 408.314 1417.04 C 399.787 1390.88 392.823 1364.3 385.507 1337.78 C 378.895 1313.82 373.118 1289.94 367.773 1265.67 C 364.139 1249.17 360.177 1233.01 359.283 1216.06 C 348.325 1213.95 338.42 1212.11 328.332 1207.03 C 311.084 1198.36 296.128 1183.62 290.357 1164.82 C 286.752 1153.07 287.017 1140.04 287.067 1127.86 C 287.128 1113.12 287.305 1098.39 287.256 1083.66 C 287.189 1063.46 285.282 1041.57 288.038 1021.56 C 289.159 1013.42 291.852 1005.5 295.802 998.312 C 306.084 979.587 326.802 967.218 346.767 961.485 C 337.136 951.829 331.07 935.581 324.105 923.784 C 318.832 914.853 312.591 906.546 308.007 897.229 L 329.297 896.168 L 355.981 896.071 z"/>
<path transform="translate(0,0)" fill="rgb(2,2,2)" d="M 359.199 960.695 C 387.636 961.4 407.129 964.4 427.728 985.975 C 436.788 995.466 442.821 1007.88 445.813 1020.59 C 449.33 1035.53 447.782 1053.76 447.776 1069.13 C 447.768 1091.12 448.006 1113.19 447.383 1135.17 C 446.757 1157.24 440.046 1177.27 423.52 1192.61 C 411.696 1203.59 397.716 1210.41 382.261 1214.66 C 374.942 1216.67 366.824 1215.95 359.283 1216.06 C 348.325 1213.95 338.42 1212.11 328.332 1207.03 C 311.084 1198.36 296.128 1183.62 290.357 1164.82 C 286.752 1153.07 287.017 1140.04 287.067 1127.86 C 287.128 1113.12 287.305 1098.39 287.256 1083.66 C 287.189 1063.46 285.282 1041.57 288.038 1021.56 C 289.159 1013.42 291.852 1005.5 295.802 998.312 C 306.084 979.587 326.802 967.218 346.767 961.485 L 359.199 960.695 z"/>
<path transform="translate(0,0)" fill="rgb(57,51,85)" d="M 362.118 1025.97 C 364.734 1025.92 367.186 1026.03 369.744 1026.65 C 374.504 1027.8 379.633 1031.71 381.832 1036.12 C 384.351 1041.18 382.782 1050.15 382.536 1055.78 C 382.116 1065.42 381.972 1075.06 381.976 1084.71 C 381.981 1097.51 383.152 1110.44 382.651 1123.22 C 382.458 1128.17 382.397 1136.16 380.416 1140.65 C 378.273 1145.5 374.655 1147.37 369.976 1149.33 C 364.292 1149.68 360.908 1150.21 356.577 1146.16 C 353.292 1143.08 351.123 1138.95 350.502 1134.48 C 349.842 1129.73 350.745 1124.23 350.962 1119.41 C 351.298 1111.95 351.248 1104.49 351.216 1097.02 C 351.13 1076.86 349.548 1057.13 348.821 1037.05 C 352.76 1031.72 356.156 1028.96 362.118 1025.97 z"/>
<path transform="translate(0,0)" fill="rgb(201,247,252)" d="M 1088.04 896.165 C 1103.21 896.079 1118.38 895.959 1133.54 896.138 C 1139.04 896.203 1146.69 895.297 1151.84 897.135 C 1151.96 1064.05 1152.13 1230.96 1152.03 1397.88 C 1152 1449.61 1152.05 1501.34 1152.08 1553.08 C 1152.09 1578.94 1153.69 1606 1151.78 1631.71 C 1151.21 1639.41 1149.74 1647.28 1144.73 1653.42 C 1139.3 1660.07 1129.95 1664.25 1121.5 1664.89 C 1113.23 1665.52 1104.67 1661.88 1098.81 1656.19 C 1092.92 1650.45 1089.21 1642.85 1088.43 1634.71 C 1086.84 1618.07 1088.46 1600 1088.28 1583.18 C 1087.69 1528.28 1088.78 1473.39 1088.82 1418.49 C 1088.93 1298 1088.79 1177.49 1088.48 1057 C 1088.34 1003.37 1088.92 949.801 1088.04 896.165 z"/>
<path transform="translate(0,0)" fill="rgb(2,2,2)" d="M 1527.17 320.318 C 1540.26 319.307 1553.82 319.978 1566.96 319.966 C 1591.39 319.944 1615.82 319.934 1640.25 319.932 C 1661.5 319.93 1682.75 319.936 1704 319.958 C 1715.17 319.97 1726.96 319.238 1738.06 320.263 C 1745.74 320.972 1753.21 322.956 1760.43 325.605 C 1784.2 334.324 1805.83 351.709 1816.35 375.19 C 1826.89 398.702 1825.98 425.742 1816.78 449.384 L 1825.88 452.72 C 1850.15 463.787 1872.42 482.667 1881.7 508.433 L 1882.25 510 C 1886.19 520.75 1887.99 531.606 1888 543.052 C 1888.02 569.645 1878.01 592.57 1859.1 611.188 C 1844.05 626.009 1822.28 636.442 1801.34 639.523 C 1794.24 640.569 1786.46 640.014 1779.29 640.034 C 1765.36 640.072 1751.43 640.043 1737.5 640.003 C 1676.91 640.032 1616.33 640.052 1555.74 640.036 C 1537.22 640.031 1518.7 640.024 1500.18 640.004 C 1488.27 639.992 1476.35 640.418 1464.5 639.041 C 1448.36 637.165 1432.98 632.176 1419.5 622.936 C 1397.62 607.941 1382.43 583.797 1377.76 557.811 C 1373.4 533.588 1379.21 509.185 1393.05 489 C 1406.95 468.723 1425.48 457.403 1449 451.45 C 1445.44 441.791 1442.63 432.524 1441.18 422.311 C 1438.02 399.98 1444.24 375.583 1457.97 357.698 C 1474.86 335.714 1500.22 323.832 1527.17 320.318 z"/>
<path transform="translate(0,0)" fill="rgb(255,121,4)" d="M 1619.7 384.477 C 1643.97 384.136 1668.25 384.164 1692.52 384.114 C 1705.85 384.086 1721.34 382.563 1734.34 385.328 C 1739.58 386.441 1744.63 389.361 1748.5 393.02 C 1754.83 399.006 1759.06 407.587 1759.06 416.346 C 1759.07 425.017 1754.97 433.627 1748.84 439.635 C 1745.11 443.292 1741.12 445.589 1736.02 446.615 C 1727.4 448.345 1716.68 447.306 1707.84 447.352 C 1686.81 447.462 1665.78 447.516 1644.75 447.575 C 1619.43 447.649 1594.12 447.657 1568.8 447.645 C 1557.15 447.639 1542.17 449.312 1531 446.709 C 1526.78 445.725 1522.95 443.178 1519.59 440.537 C 1511.93 434.518 1505.94 425.391 1505.18 415.5 C 1504.61 408.183 1508.32 399.974 1513.35 394.881 C 1517.67 390.518 1522.95 387.545 1528.9 386.08 C 1539.74 383.411 1554.4 385.061 1565.67 385.05 C 1583.68 385.033 1601.69 384.731 1619.7 384.477 z"/>
<path transform="translate(0,0)" fill="rgb(255,121,4)" d="M 1682.49 512.485 C 1707.68 512.144 1732.89 512.205 1758.08 512.16 C 1770.45 512.138 1784.65 510.766 1796.83 512.686 C 1801.78 513.466 1806.27 515.59 1810.12 518.791 C 1816.82 524.371 1822.18 533.102 1822.68 542 C 1823.17 550.658 1818.73 559.021 1812.76 564.936 C 1808.07 569.572 1802.39 573.244 1795.81 574.434 C 1788.36 575.782 1780.09 575.22 1772.51 575.277 C 1759.15 575.377 1745.79 575.458 1732.43 575.533 C 1681.87 575.814 1631.31 575.809 1580.75 575.713 C 1559.14 575.704 1537.53 575.751 1515.91 575.75 C 1501.75 575.75 1486.25 576.722 1472.27 574.271 C 1464.89 572.976 1458.79 570.57 1452.93 565.859 C 1446.6 560.774 1441.48 552.285 1441 544.076 C 1440.61 537.321 1443.95 530.088 1448.61 525.318 C 1454 519.792 1461.72 514.96 1469.34 513.341 C 1474 512.35 1479.72 512.938 1484.51 512.934 C 1495.19 512.923 1505.85 512.958 1516.53 512.865 C 1571.85 512.382 1627.17 513.261 1682.49 512.485 z"/>
<path transform="translate(0,0)" fill="rgb(2,2,2)" d="M 1554.6 768.339 C 1568.42 767.215 1582.79 767.982 1596.66 767.97 C 1622.81 767.948 1648.97 767.937 1675.13 767.934 C 1702.86 767.93 1730.6 767.933 1758.34 767.956 C 1773.01 767.969 1788.17 767.195 1802.79 768.266 C 1811.21 768.883 1819.34 770.729 1827.27 773.631 C 1847.56 781.066 1870.68 798.484 1879.65 818.621 L 1880.25 819.995 C 1887.11 835.524 1887.5 852.986 1885.33 869.626 C 1885.11 871.275 1884.82 870.599 1886.2 871.579 C 1897.01 879.245 1905.68 886.052 1911.67 898.282 L 1912.36 899.701 L 1913.59 902.22 C 1922.61 921.774 1921.45 939.672 1913.92 959.376 C 1917.54 960.351 1922.05 959.822 1925.8 959.835 C 1937.05 959.872 1951.79 958.296 1962.26 962.354 L 1963.5 962.865 C 1965.23 963.535 1966.91 964.114 1968.5 965.09 C 1975.76 969.541 1980.09 976.786 1982.17 984.871 L 1982.57 986.5 C 1984.28 993.038 1984.05 999.377 1984.07 1006.09 C 1984.14 1038.28 1975.6 1068.32 1952.26 1091.5 C 1938.14 1105.53 1918.14 1116.65 1898.2 1119.38 C 1881.89 1121.62 1863.63 1120.05 1847.13 1120.05 C 1823.26 1120.06 1799.38 1120.04 1775.5 1120 C 1697.67 1120.04 1619.84 1120.06 1542 1120.05 C 1520.32 1120.04 1498.64 1120.03 1476.96 1120.02 C 1459.33 1120 1441.98 1120.87 1424.6 1117.33 C 1406.65 1113.68 1390.31 1104.61 1377.28 1091.82 C 1350.89 1065.91 1344.46 1035.32 1344.12 999.539 C 1344 987.65 1345.66 977.933 1354.6 969.279 C 1358.87 965.146 1364.6 961.353 1370.5 960.19 C 1378.37 958.64 1388.39 959.796 1396.43 959.852 C 1412.6 959.966 1428.77 959.919 1444.95 959.885 C 1442.24 948.278 1439.35 936.109 1441.66 924.15 C 1445.71 903.192 1457.83 883.009 1475.94 871.189 L 1476.94 870.561 L 1475.08 859.932 C 1472.23 838.495 1476.02 819.693 1489.74 802.523 C 1505.81 782.402 1529.48 771.451 1554.6 768.339 z"/>
<path transform="translate(0,0)" fill="rgb(34,143,17)" d="M 1633.67 832.468 C 1666.62 832.034 1699.55 832.735 1732.5 832.594 C 1746.77 832.532 1761.05 832.273 1775.32 832.203 C 1783.74 832.162 1793.5 831.59 1801.73 833.664 C 1808.62 835.4 1814.72 840.525 1818.09 846.72 C 1820.44 851.04 1820.4 854.941 1818.91 859.5 C 1814.45 863.219 1800.22 861.735 1794.33 861.752 C 1773.3 861.814 1752.28 861.815 1731.25 861.809 L 1551.31 861.857 C 1545.94 858.411 1542.31 855.657 1540.21 849.5 C 1540.87 845.131 1542.05 842.451 1545.18 839.255 C 1548.27 836.097 1550.97 834.596 1555.28 833.663 C 1564.11 831.748 1575.48 832.972 1584.58 832.974 C 1600.95 832.977 1617.3 832.777 1633.67 832.468 z"/>
<path transform="translate(0,0)" fill="rgb(34,143,17)" d="M 1802.01 928.462 C 1813.15 928.113 1824.31 928.077 1835.45 928.07 C 1841.05 928.066 1847.43 927.277 1852.05 931 C 1853.27 933.287 1853.91 935.077 1853.79 937.719 C 1853.56 942.75 1850.29 948.288 1846.66 951.635 C 1842.9 955.098 1838.21 957.159 1833.17 957.828 C 1822.42 959.253 1811.06 958.718 1800.21 958.773 C 1782.44 958.862 1764.68 958.905 1746.91 958.936 C 1684.75 959.044 1622.65 958.941 1560.5 958.053 C 1549.63 958.023 1522.83 960.695 1514.84 954.236 C 1510.85 951.009 1507.5 946.796 1507.14 941.5 C 1506.92 938.074 1508.23 934.212 1510.68 931.787 C 1512.71 929.772 1514.07 928.93 1517 928.828 C 1523.25 928.611 1529.73 929.347 1536 929.433 C 1546.77 929.578 1557.56 929.27 1568.33 929.202 C 1646.14 928.71 1724.27 930.722 1802.01 928.462 z"/>
<path transform="translate(0,0)" fill="rgb(255,65,99)" d="M 1423.73 1024.43 L 1916.48 1024.38 C 1913.51 1035.6 1908.6 1041.98 1900.56 1049.93 L 1896.72 1051.94 C 1892.16 1053.96 1884.82 1053.44 1879.77 1053.57 C 1866.05 1053.95 1852.31 1054.07 1838.59 1054.28 C 1754.25 1055.53 1669.88 1054.58 1585.53 1054.76 C 1555.78 1054.82 1526.03 1054.91 1496.29 1054.98 C 1479.75 1055.02 1462.92 1055.66 1446.42 1054.88 C 1442.24 1054.68 1437.65 1054.15 1433.81 1052.38 C 1423.63 1047.7 1416.34 1036.09 1412.46 1026.1 C 1414.42 1024.02 1420.73 1024.59 1423.73 1024.43 z"/>
</svg>